<svg id="b0613604-cb64-4fd5-a4c3-be829c572cfc" xmlns="http://www.w3.org/2000/svg" viewBox="0 0 435.12 355.23"><defs><style>.cls-1,.cls-4{fill:#f1b106;}.cls-2{fill:#fff;}.cls-3,.cls-5{fill:#0d0d0d;}.cls-4{isolation:isolate;}.cls-5{stroke:#000;stroke-miterlimit:10;stroke-width:2px;}</style></defs><path class="cls-1" d="M538,465.42,469.65,417.1c23.05-22.45,44-54.41,64.05-90.55L602,374.87C574.72,405.88,551.59,436.31,538,465.42Z" transform="translate(-195 -188.6)"/><circle class="cls-2" cx="342.99" cy="205.2" r="20.17"/><path class="cls-3" d="M445.72,349.57h-14a1.87,1.87,0,0,0-1.87,1.86v6.16a1.87,1.87,0,0,0,1.87,1.86H434v9.23h9.39v-9.23h2.32a1.87,1.87,0,0,0,1.87-1.86h0v-6.16A1.87,1.87,0,0,0,445.72,349.57Z" transform="translate(-195 -188.6)"/><path class="cls-1" d="M459.79,406a72.14,72.14,0,0,1-12.56-42.79,1.51,1.51,0,0,0-1.19-1.52V359H431.21v2.62H431a1.53,1.53,0,0,0-1.52,1.53h0v.11q1.75,24.42-11.83,43.81a4.18,4.18,0,0,0-.76,2.54l1.62,50.15a4.35,4.35,0,0,0,4.31,4.19h33.54a4.34,4.34,0,0,0,4.3-4.27L461.3,411A8.79,8.79,0,0,0,459.79,406Z" transform="translate(-195 -188.6)"/><path class="cls-4" d="M442.8,351.57a4,4,0,1,1-8,0" transform="translate(-195 -188.6)"/><path class="cls-2" d="M454.48,422.62H425.29a3,3,0,0,0-3,3,3.4,3.4,0,0,0,0,.45l4.42,28.68h25.33l5.35-28.58a3,3,0,0,0-2.39-3.5,3.41,3.41,0,0,0-.55-.05Z" transform="translate(-195 -188.6)"/><path class="cls-1" d="M405.67,465.34H322c5.85-31.63,4.51-69.83,0-110.91h83.69C401.28,395.51,400,433.71,405.67,465.34Z" transform="translate(-195 -188.6)"/><circle class="cls-2" cx="169.33" cy="218.26" r="20.17"/><polygon class="cls-3" points="383.87 284.06 118 284.06 61.7 17.91 13.65 17.91 13.65 5.97 71.38 5.97 127.68 272.12 383.87 272.12 383.87 284.06"/><path class="cls-5" d="M574,467.05H315.35L269.71,241.49H616.86a12.27,12.27,0,0,1,12.26,12.27,12.07,12.07,0,0,1-.15,1.9l-42.83,201A12.21,12.21,0,0,1,574,467.05Zm-255.87-3.42H574a8.8,8.8,0,0,0,8.74-7.47l42.83-201a8.81,8.81,0,0,0-8.74-10.22h-343Z" transform="translate(-195 -188.6)"/><polygon class="cls-5" points="170.63 277.72 140.74 54.87 144.11 54.32 174 277.16 170.63 277.72"/><polygon class="cls-5" points="336.83 276.01 333.46 275.46 362.48 54.32 365.85 54.87 336.83 276.01"/><rect class="cls-5" x="254.23" y="54.59" width="3.41" height="222.85"/><rect class="cls-5" x="450.57" y="139.87" width="3.41" height="330.3" transform="translate(-48.84 567.95) rotate(-89.86)"/><rect class="cls-5" x="303.96" y="409.31" width="290.18" height="3.41" transform="matrix(1, -0.01, 0.01, 1, -197.8, -185.53)"/><ellipse class="cls-3" cx="18.77" cy="10.24" rx="18.77" ry="10.24"/><ellipse class="cls-3" cx="174" cy="319.65" rx="38.08" ry="35.58"/><path class="cls-1" d="M367.43,526.31v-4.45a11.63,11.63,0,0,1-6.35-1.94l1-3a10.65,10.65,0,0,0,6,1.9c2.94,0,4.94-1.81,4.94-4.32s-1.62-3.93-4.7-5.25c-4.23-1.76-6.85-3.79-6.85-7.63a7.07,7.07,0,0,1,6.27-7.1v-4.45h2.58v4.27a10.62,10.62,0,0,1,5.4,1.55l-1,2.91a9.6,9.6,0,0,0-5.23-1.5c-3.2,0-4.41,2-4.41,3.79,0,2.29,1.54,3.44,5.15,5,4.28,1.85,6.44,4.14,6.44,8.07a7.52,7.52,0,0,1-6.56,7.5v4.58Z" transform="translate(-195 -188.6)"/><ellipse class="cls-3" cx="321.55" cy="317.45" rx="38.08" ry="35.58"/><path class="cls-1" d="M515,524.12v-4.46a11.47,11.47,0,0,1-6.35-1.94l1-3a10.64,10.64,0,0,0,6,1.89c2.95,0,4.94-1.8,4.94-4.32s-1.62-3.92-4.69-5.25c-4.24-1.76-6.86-3.79-6.86-7.62,0-3.67,2.45-6.44,6.27-7.11v-4.45h2.58v4.28a10.61,10.61,0,0,1,5.4,1.54l-1,2.91a9.68,9.68,0,0,0-5.23-1.5c-3.2,0-4.41,2-4.41,3.8,0,2.29,1.54,3.44,5.16,5,4.27,1.86,6.43,4.15,6.43,8.07a7.51,7.51,0,0,1-6.56,7.5v4.59Z" transform="translate(-195 -188.6)"/></svg>