<?xml version="1.0" encoding="utf-8"?>
<!-- Generator: Adobe Illustrator 24.1.1, SVG Export Plug-In . SVG Version: 6.00 Build 0)  -->
<svg version="1.1" id="b0613604-cb64-4fd5-a4c3-be829c572cfc"
	 xmlns="http://www.w3.org/2000/svg" xmlns:xlink="http://www.w3.org/1999/xlink" x="0px" y="0px" viewBox="0 0 435.1 355.2"
	 style="enable-background:new 0 0 435.1 355.2;" xml:space="preserve">
<style type="text/css">
	.st0{fill:#F1B106;}
	.st1{fill:#FFFFFF;}
	.st2{fill:#0D0D0D;}
	.st3{fill:#0D0D0D;stroke:#000000;stroke-width:2;stroke-miterlimit:10;}
	.st4{fill:#0D0D0D;stroke:#000000;stroke-width:2.0001;stroke-miterlimit:10.0005;}
</style>
<path class="st0" d="M343,276.8l-68.4-48.3c23-22.5,44-54.4,64.1-90.6l68.3,48.3C379.7,217.3,356.6,247.7,343,276.8z"/>
<circle class="st1" cx="343" cy="205.2" r="20.2"/>
<path class="st2" d="M250.7,161h-14c-1,0-1.9,0.8-1.9,1.9v6.2c0,1,0.8,1.9,1.9,1.9h2.3v9.2h9.4v-9.2h2.3c1,0,1.9-0.8,1.9-1.9l0,0
	v-6.2C252.6,161.8,251.7,161,250.7,161z"/>
<path class="st0" d="M264.8,217.4c-8.6-12.6-13-27.6-12.6-42.8c0-0.7-0.5-1.4-1.2-1.5v-2.7h-14.8v2.6H236c-0.8,0-1.5,0.7-1.5,1.5
	l0,0v0.1c1.2,16.3-2.8,30.9-11.8,43.8c-0.5,0.7-0.8,1.6-0.8,2.5l1.6,50.1c0.1,2.3,2,4.2,4.3,4.2h33.5c2.4,0,4.3-1.9,4.3-4.3
	l0.6-48.7C266.3,220.6,265.8,218.9,264.8,217.4z"/>
<path class="st0" d="M247.8,163c0,2.2-1.8,4-4,4s-4-1.8-4-4"/>
<path class="st1" d="M259.5,234h-29.2c-1.7,0-3,1.3-3,3c0,0.1,0,0.3,0,0.5l4.4,28.7H257l5.4-28.6c0.3-1.6-0.8-3.2-2.4-3.5
	C259.8,234,259.6,234,259.5,234L259.5,234z"/>
<path class="st0" d="M210.7,276.7H127c5.9-31.6,4.5-69.8,0-110.9h83.7C206.3,206.9,205,245.1,210.7,276.7z"/>
<circle class="st1" cx="169.3" cy="218.3" r="20.2"/>
<polygon class="st2" points="383.9,284.1 118,284.1 61.7,17.9 13.6,17.9 13.6,6 71.4,6 127.7,272.1 383.9,272.1 "/>
<path class="st3" d="M379,278.4H120.4L74.7,52.9h347.1c6.8,0,12.3,5.5,12.3,12.3c0,0.6,0,1.3-0.2,1.9l-42.8,201
	C390.2,274.1,385.1,278.5,379,278.4z M123.1,275H379c4.4,0,8.1-3.2,8.7-7.5l42.8-201c0.8-4.8-2.5-9.3-7.3-10.1
	c-0.5-0.1-1-0.1-1.5-0.1h-343L123.1,275z"/>
<polygon class="st3" points="170.6,277.7 140.7,54.9 144.1,54.3 174,277.2 "/>
<polygon class="st3" points="336.8,276 333.5,275.5 362.5,54.3 365.9,54.9 "/>
<rect x="254.2" y="54.6" class="st3" width="3.4" height="222.9"/>
<rect x="255.6" y="-48.7" transform="matrix(2.443448e-03 -1 1 2.443448e-03 140.2342 373.4206)" class="st3" width="3.4" height="330.3"/>
<rect x="110.3" y="219.3" transform="matrix(0.9999 -9.999500e-03 9.999500e-03 0.9999 -2.1971 2.5645)" class="st4" width="290.2" height="3.4"/>
<ellipse class="st2" cx="18.8" cy="10.2" rx="18.8" ry="10.2"/>
<ellipse class="st2" cx="174" cy="319.6" rx="38.1" ry="35.6"/>
<path class="st0" d="M172.4,337.7v-4.5c-2.3,0-4.5-0.7-6.4-1.9l1-3c1.8,1.2,3.9,1.9,6,1.9c2.9,0,4.9-1.8,4.9-4.3s-1.6-3.9-4.7-5.3
	c-4.2-1.8-6.9-3.8-6.9-7.6c0-3.6,2.7-6.7,6.3-7.1v-4.5h2.6v4.3c1.9,0,3.8,0.6,5.4,1.5l-1,2.9c-1.6-1-3.4-1.5-5.2-1.5
	c-3.2,0-4.4,2-4.4,3.8c0,2.3,1.5,3.4,5.1,5c4.3,1.9,6.4,4.1,6.4,8.1c0,3.8-2.8,7-6.6,7.5v4.6L172.4,337.7z"/>
<ellipse class="st2" cx="321.4" cy="319.6" rx="38.1" ry="35.6"/>
<path class="st0" d="M319.9,337.7v-4.5c-2.3,0-4.5-0.7-6.4-1.9l1-3c1.8,1.2,3.9,1.9,6,1.9c3,0,4.9-1.8,4.9-4.3s-1.6-3.9-4.7-5.3
	c-4.2-1.8-6.9-3.8-6.9-7.6c0-3.7,2.5-6.4,6.3-7.1v-4.5h2.6v4.3c1.9,0,3.8,0.6,5.4,1.5l-1,2.9c-1.6-1-3.4-1.5-5.2-1.5
	c-3.2,0-4.4,2-4.4,3.8c0,2.3,1.5,3.4,5.2,5c4.3,1.9,6.4,4.1,6.4,8.1c0,3.8-2.8,7-6.6,7.5v4.6L319.9,337.7z"/>
</svg>
